<mxfile host="app.diagrams.net" modified="2023-06-22T02:39:11.525Z" agent="Mozilla/5.0 (Windows NT 10.0; Win64; x64) AppleWebKit/537.36 (KHTML, like Gecko) Chrome/114.0.0.0 Safari/537.36" etag="MkDx9J3oS3gZ3lDQ3UAS" version="21.4.0" type="device">
  <diagram name="페이지-1" id="JxJEGiGlFqP5x_wQukq9">
    <mxGraphModel dx="1641" dy="1589" grid="0" gridSize="10" guides="1" tooltips="1" connect="1" arrows="1" fold="1" page="1" pageScale="1" pageWidth="827" pageHeight="1169" math="0" shadow="0">
      <root>
        <mxCell id="0" />
        <mxCell id="1" parent="0" />
        <mxCell id="dWyzlkkLUiHlaO7ZP1p0-30" style="rounded=0;orthogonalLoop=1;jettySize=auto;html=1;exitX=0.5;exitY=0.5;exitDx=0;exitDy=0;exitPerimeter=0;" edge="1" parent="1" source="dWyzlkkLUiHlaO7ZP1p0-1" target="dWyzlkkLUiHlaO7ZP1p0-11">
          <mxGeometry relative="1" as="geometry" />
        </mxCell>
        <mxCell id="dWyzlkkLUiHlaO7ZP1p0-31" style="rounded=0;orthogonalLoop=1;jettySize=auto;html=1;exitX=0.5;exitY=0.5;exitDx=0;exitDy=0;exitPerimeter=0;" edge="1" parent="1" source="dWyzlkkLUiHlaO7ZP1p0-1" target="dWyzlkkLUiHlaO7ZP1p0-12">
          <mxGeometry relative="1" as="geometry" />
        </mxCell>
        <mxCell id="dWyzlkkLUiHlaO7ZP1p0-1" value="회원" style="shape=umlActor;verticalLabelPosition=bottom;verticalAlign=top;html=1;outlineConnect=0;" vertex="1" parent="1">
          <mxGeometry x="131" y="217" width="54" height="108" as="geometry" />
        </mxCell>
        <mxCell id="dWyzlkkLUiHlaO7ZP1p0-5" value="블로그" style="shape=umlFrame;whiteSpace=wrap;html=1;pointerEvents=0;fillColor=none;strokeColor=#B8B8B8;" vertex="1" parent="1">
          <mxGeometry x="315.1" y="135" width="351.9" height="620" as="geometry" />
        </mxCell>
        <mxCell id="dWyzlkkLUiHlaO7ZP1p0-32" style="rounded=0;orthogonalLoop=1;jettySize=auto;html=1;exitX=0.5;exitY=0.5;exitDx=0;exitDy=0;exitPerimeter=0;entryX=0;entryY=0.5;entryDx=0;entryDy=0;" edge="1" parent="1" source="dWyzlkkLUiHlaO7ZP1p0-6" target="dWyzlkkLUiHlaO7ZP1p0-15">
          <mxGeometry relative="1" as="geometry" />
        </mxCell>
        <mxCell id="dWyzlkkLUiHlaO7ZP1p0-33" style="rounded=0;orthogonalLoop=1;jettySize=auto;html=1;exitX=0.5;exitY=0.5;exitDx=0;exitDy=0;exitPerimeter=0;" edge="1" parent="1" source="dWyzlkkLUiHlaO7ZP1p0-6" target="dWyzlkkLUiHlaO7ZP1p0-14">
          <mxGeometry relative="1" as="geometry" />
        </mxCell>
        <mxCell id="dWyzlkkLUiHlaO7ZP1p0-34" style="rounded=0;orthogonalLoop=1;jettySize=auto;html=1;exitX=0.5;exitY=0.5;exitDx=0;exitDy=0;exitPerimeter=0;entryX=0;entryY=0.5;entryDx=0;entryDy=0;" edge="1" parent="1" source="dWyzlkkLUiHlaO7ZP1p0-6" target="dWyzlkkLUiHlaO7ZP1p0-13">
          <mxGeometry relative="1" as="geometry" />
        </mxCell>
        <mxCell id="dWyzlkkLUiHlaO7ZP1p0-6" value="비회원" style="shape=umlActor;verticalLabelPosition=bottom;verticalAlign=top;html=1;outlineConnect=0;" vertex="1" parent="1">
          <mxGeometry x="131" y="512" width="54" height="108" as="geometry" />
        </mxCell>
        <mxCell id="dWyzlkkLUiHlaO7ZP1p0-27" value="" style="group" vertex="1" connectable="0" parent="1">
          <mxGeometry x="348" y="464" width="285.91" height="228" as="geometry" />
        </mxCell>
        <mxCell id="dWyzlkkLUiHlaO7ZP1p0-13" value="게시글 삭제" style="ellipse;whiteSpace=wrap;html=1;fillColor=#f0f6ff;strokeColor=#6c8ebf;" vertex="1" parent="dWyzlkkLUiHlaO7ZP1p0-27">
          <mxGeometry y="177.00958466453676" width="101.98063694267518" height="50.99041533546326" as="geometry" />
        </mxCell>
        <mxCell id="dWyzlkkLUiHlaO7ZP1p0-14" value="게시글 수정" style="ellipse;whiteSpace=wrap;html=1;fillColor=#f0f6ff;strokeColor=#6c8ebf;" vertex="1" parent="dWyzlkkLUiHlaO7ZP1p0-27">
          <mxGeometry y="88.86900958466454" width="101.98063694267518" height="50.99041533546326" as="geometry" />
        </mxCell>
        <mxCell id="dWyzlkkLUiHlaO7ZP1p0-15" value="게시글 작성" style="ellipse;whiteSpace=wrap;html=1;fillColor=#f0f6ff;strokeColor=#6c8ebf;" vertex="1" parent="dWyzlkkLUiHlaO7ZP1p0-27">
          <mxGeometry width="101.98063694267518" height="50.99041533546326" as="geometry" />
        </mxCell>
        <mxCell id="dWyzlkkLUiHlaO7ZP1p0-17" value="작성자 인증" style="ellipse;whiteSpace=wrap;html=1;fillColor=#dae8fc;strokeColor=#6c8ebf;" vertex="1" parent="dWyzlkkLUiHlaO7ZP1p0-27">
          <mxGeometry x="183.92936305732488" y="127.47603833865816" width="101.98063694267518" height="50.99041533546326" as="geometry" />
        </mxCell>
        <mxCell id="dWyzlkkLUiHlaO7ZP1p0-25" value="&amp;lt;&amp;lt; 포함 &amp;gt;&amp;gt;" style="html=1;verticalAlign=bottom;endArrow=open;dashed=1;endSize=8;elbow=vertical;rounded=0;exitX=1;exitY=0.5;exitDx=0;exitDy=0;entryX=0;entryY=0;entryDx=0;entryDy=0;" edge="1" parent="dWyzlkkLUiHlaO7ZP1p0-27" source="dWyzlkkLUiHlaO7ZP1p0-14" target="dWyzlkkLUiHlaO7ZP1p0-17">
          <mxGeometry relative="1" as="geometry">
            <mxPoint x="155.52047133757964" y="140.06338658146964" as="sourcePoint" />
            <mxPoint x="93.60365605095544" y="137.6741214057508" as="targetPoint" />
          </mxGeometry>
        </mxCell>
        <mxCell id="dWyzlkkLUiHlaO7ZP1p0-26" value="&amp;lt;&amp;lt; 포함 &amp;gt;&amp;gt;" style="html=1;verticalAlign=bottom;endArrow=open;dashed=1;endSize=8;elbow=vertical;rounded=0;entryX=0;entryY=1;entryDx=0;entryDy=0;" edge="1" parent="dWyzlkkLUiHlaO7ZP1p0-27" source="dWyzlkkLUiHlaO7ZP1p0-13" target="dWyzlkkLUiHlaO7ZP1p0-17">
          <mxGeometry relative="1" as="geometry">
            <mxPoint x="170.81756687898093" y="195.94888178913737" as="sourcePoint" />
            <mxPoint x="112.54291719745225" y="195.94888178913737" as="targetPoint" />
          </mxGeometry>
        </mxCell>
        <mxCell id="dWyzlkkLUiHlaO7ZP1p0-28" value="" style="group" vertex="1" connectable="0" parent="1">
          <mxGeometry x="366" y="207" width="279.2" height="138" as="geometry" />
        </mxCell>
        <mxCell id="dWyzlkkLUiHlaO7ZP1p0-11" value="회원가입" style="ellipse;whiteSpace=wrap;html=1;fillColor=#f0f6ff;strokeColor=#6c8ebf;" vertex="1" parent="dWyzlkkLUiHlaO7ZP1p0-28">
          <mxGeometry width="99.58726114649681" height="49.79381443298969" as="geometry" />
        </mxCell>
        <mxCell id="dWyzlkkLUiHlaO7ZP1p0-12" value="게시글 조회" style="ellipse;whiteSpace=wrap;html=1;fillColor=#f0f6ff;strokeColor=#6c8ebf;" vertex="1" parent="dWyzlkkLUiHlaO7ZP1p0-28">
          <mxGeometry y="86.78350515463917" width="99.58726114649681" height="49.79381443298969" as="geometry" />
        </mxCell>
        <mxCell id="dWyzlkkLUiHlaO7ZP1p0-18" value="게시글 상세조회" style="ellipse;whiteSpace=wrap;html=1;fillColor=#dae8fc;strokeColor=#6c8ebf;" vertex="1" parent="dWyzlkkLUiHlaO7ZP1p0-28">
          <mxGeometry x="179.61273885350317" y="88.20618556701031" width="99.58726114649681" height="49.79381443298969" as="geometry" />
        </mxCell>
        <mxCell id="dWyzlkkLUiHlaO7ZP1p0-23" value="&amp;lt;&amp;lt; 확장&amp;nbsp; &amp;gt;&amp;gt;" style="html=1;verticalAlign=bottom;endArrow=open;dashed=1;endSize=8;edgeStyle=elbowEdgeStyle;elbow=vertical;curved=0;rounded=0;" edge="1" parent="dWyzlkkLUiHlaO7ZP1p0-28" source="dWyzlkkLUiHlaO7ZP1p0-18">
          <mxGeometry relative="1" as="geometry">
            <mxPoint x="154.00458598726115" y="113.05329896907217" as="sourcePoint" />
            <mxPoint x="97.0975796178344" y="113.05329896907217" as="targetPoint" />
          </mxGeometry>
        </mxCell>
      </root>
    </mxGraphModel>
  </diagram>
</mxfile>
